<?xml version="1.0" encoding="utf-8" standalone="no"?>
<!DOCTYPE svg PUBLIC "-//W3C//DTD SVG 1.1//EN"
  "http://www.w3.org/Graphics/SVG/1.1/DTD/svg11.dtd">
<svg xmlns:xlink="http://www.w3.org/1999/xlink" width="386.103906pt" height="284.080312pt" viewBox="0 0 386.103906 284.080312" xmlns="http://www.w3.org/2000/svg" version="1.1">
 <metadata>
  <rdf:RDF xmlns:dc="http://purl.org/dc/elements/1.1/" xmlns:cc="http://creativecommons.org/ns#" xmlns:rdf="http://www.w3.org/1999/02/22-rdf-syntax-ns#">
   <cc:Work>
    <dc:type rdf:resource="http://purl.org/dc/dcmitype/StillImage"/>
    <dc:date>2026-09-14T16:09:26.922643</dc:date>
    <dc:format>image/svg+xml</dc:format>
    <dc:creator>
     <cc:Agent>
      <dc:title>Matplotlib v3.11.2, https://matplotlib.org/</dc:title>
     </cc:Agent>
    </dc:creator>
   </cc:Work>
  </rdf:RDF>
 </metadata>
 <defs>
  <style type="text/css">*{stroke-linejoin: round; stroke-linecap: butt}</style>
 </defs>
 <g id="figure_1">
  <g id="patch_1">
   <path d="M 0 284.080312 
L 386.103906 284.080312 
L 386.103906 0 
L 0 0 
z
" style="fill: #ffffff"/>
  </g>
  <g id="axes_1">
   <g id="patch_2">
    <path d="M 44.103906 244.077187 
L 378.903906 244.077187 
L 378.903906 22.317187 
L 44.103906 22.317187 
z
" style="fill: #ffffff"/>
   </g>
   <g id="matplotlib.axis_1">
    <g id="xtick_1">
     <g id="line2d_1">
      <defs>
       <path id="m73949eed72" d="M 0 0 
L 0 3.5 
" style="stroke: #000000; stroke-width: 0.8"/>
      </defs>
      <g>
       <use xlink:href="#m73949eed72" x="54.3944" y="244.077187" style="stroke: #000000; stroke-width: 0.8"/>
      </g>
     </g>
     <g id="text_1">
      <!-- $\mathdefault{0}$ -->
      <g transform="translate(51.1944 258.674844)">
       <text>
        <tspan x="0" y="-0.578125" style="font-size: 10px; font-family: 'DejaVu Sans'">0</tspan>
       </text>
      </g>
     </g>
    </g>
    <g id="xtick_2">
     <g id="line2d_2">
      <g>
       <use xlink:href="#m73949eed72" x="191.142821" y="244.077187" style="stroke: #000000; stroke-width: 0.8"/>
      </g>
     </g>
     <g id="text_2">
      <!-- $\mathdefault{10^{-1}}$ -->
      <g transform="translate(179.392821 260.377187)">
       <text>
        <tspan x="0" y="-0.762187" style="font-size: 10px; font-family: 'DejaVu Sans'">1</tspan>
        <tspan x="6.362305" y="-0.762187" style="font-size: 10px; font-family: 'DejaVu Sans'">0</tspan>
        <tspan x="12.820312" y="-4.892187" style="font-size: 7px; font-family: 'DejaVu Sans'">−</tspan>
        <tspan x="18.685547" y="-4.892187" style="font-size: 7px; font-family: 'DejaVu Sans'">1</tspan>
       </text>
      </g>
     </g>
    </g>
    <g id="xtick_3">
     <g id="line2d_3">
      <g>
       <use xlink:href="#m73949eed72" x="314.2164" y="244.077187" style="stroke: #000000; stroke-width: 0.8"/>
      </g>
     </g>
     <g id="text_3">
      <!-- $\mathdefault{10^{0}}$ -->
      <g transform="translate(305.4164 260.477188)">
       <text>
        <tspan x="0" y="-0.674688" style="font-size: 10px; font-family: 'DejaVu Sans'">1</tspan>
        <tspan x="6.362305" y="-0.674688" style="font-size: 10px; font-family: 'DejaVu Sans'">0</tspan>
        <tspan x="12.820312" y="-4.804688" style="font-size: 7px; font-family: 'DejaVu Sans'">0</tspan>
       </text>
      </g>
     </g>
    </g>
    <g id="text_4">
     <text style="font-size: 10px; font-family: 'DejaVu Sans'; text-anchor: middle" x="211.503906" y="274.477969" transform="rotate(-0 211.503906 274.477969)">Local displacement (lower is better)</text>
    </g>
   </g>
   <g id="matplotlib.axis_2">
    <g id="ytick_1">
     <g id="line2d_4">
      <defs>
       <path id="md55a86bfb7" d="M 0 0 
L -3.5 0 
" style="stroke: #000000; stroke-width: 0.8"/>
      </defs>
      <g>
       <use xlink:href="#md55a86bfb7" x="44.103906" y="244.077187" style="stroke: #000000; stroke-width: 0.8"/>
      </g>
     </g>
     <g id="text_5">
      <text style="font-size: 10px; font-family: 'DejaVu Sans'; text-anchor: end" x="37.103906" y="247.876016" transform="rotate(-0 37.103906 247.876016)">0.0</text>
     </g>
    </g>
    <g id="ytick_2">
     <g id="line2d_5">
      <g>
       <use xlink:href="#md55a86bfb7" x="44.103906" y="199.725187" style="stroke: #000000; stroke-width: 0.8"/>
      </g>
     </g>
     <g id="text_6">
      <text style="font-size: 10px; font-family: 'DejaVu Sans'; text-anchor: end" x="37.103906" y="203.524016" transform="rotate(-0 37.103906 203.524016)">0.2</text>
     </g>
    </g>
    <g id="ytick_3">
     <g id="line2d_6">
      <g>
       <use xlink:href="#md55a86bfb7" x="44.103906" y="155.373187" style="stroke: #000000; stroke-width: 0.8"/>
      </g>
     </g>
     <g id="text_7">
      <text style="font-size: 10px; font-family: 'DejaVu Sans'; text-anchor: end" x="37.103906" y="159.172016" transform="rotate(-0 37.103906 159.172016)">0.4</text>
     </g>
    </g>
    <g id="ytick_4">
     <g id="line2d_7">
      <g>
       <use xlink:href="#md55a86bfb7" x="44.103906" y="111.021187" style="stroke: #000000; stroke-width: 0.8"/>
      </g>
     </g>
     <g id="text_8">
      <text style="font-size: 10px; font-family: 'DejaVu Sans'; text-anchor: end" x="37.103906" y="114.820016" transform="rotate(-0 37.103906 114.820016)">0.6</text>
     </g>
    </g>
    <g id="ytick_5">
     <g id="line2d_8">
      <g>
       <use xlink:href="#md55a86bfb7" x="44.103906" y="66.669187" style="stroke: #000000; stroke-width: 0.8"/>
      </g>
     </g>
     <g id="text_9">
      <text style="font-size: 10px; font-family: 'DejaVu Sans'; text-anchor: end" x="37.103906" y="70.468016" transform="rotate(-0 37.103906 70.468016)">0.8</text>
     </g>
    </g>
    <g id="ytick_6">
     <g id="line2d_9">
      <g>
       <use xlink:href="#md55a86bfb7" x="44.103906" y="22.317187" style="stroke: #000000; stroke-width: 0.8"/>
      </g>
     </g>
     <g id="text_10">
      <text style="font-size: 10px; font-family: 'DejaVu Sans'; text-anchor: end" x="37.103906" y="26.116016" transform="rotate(-0 37.103906 26.116016)">1.0</text>
     </g>
    </g>
    <g id="text_11">
     <text style="font-size: 10px; font-family: 'DejaVu Sans'; text-anchor: middle" x="14.798438" y="133.197187" transform="rotate(-90 14.798438 133.197187)">Empirical CDF</text>
    </g>
   </g>
   <g id="line2d_10">
    <path d="M 61.025144 243.966307 
L 65.71781 243.744547 
L 65.882187 243.633667 
L 66.292986 243.522787 
L 70.477183 243.301027 
L 70.546015 243.190147 
L 71.800211 242.968387 
L 72.144862 242.857507 
L 79.622047 242.413987 
L 82.748464 242.081347 
L 82.774694 241.970467 
L 85.74201 241.748707 
L 86.721892 241.526947 
L 86.889655 241.416067 
L 90.933496 241.194307 
L 93.661241 240.972547 
L 95.293775 240.750787 
L 96.203337 240.307267 
L 101.939773 239.641987 
L 102.38575 239.531107 
L 104.324092 239.198467 
L 105.521124 238.976707 
L 106.958815 238.754947 
L 107.693229 238.533187 
L 109.007952 238.311427 
L 109.398636 238.089667 
L 109.663242 237.978787 
L 113.993884 237.757027 
L 114.911773 237.424387 
L 115.05343 237.313507 
L 115.809842 237.091747 
L 117.411399 236.869987 
L 117.652362 236.759107 
L 118.624843 236.537347 
L 119.815195 236.315587 
L 120.059666 236.093827 
L 120.377599 235.761187 
L 122.168417 235.539427 
L 122.195634 235.428547 
L 123.309087 235.206787 
L 123.472146 235.095907 
L 125.204466 234.874147 
L 126.031087 234.652387 
L 126.349538 234.541507 
L 129.204747 234.319747 
L 129.345856 234.208867 
L 130.510237 233.987107 
L 131.961177 233.765347 
L 133.051135 233.432707 
L 133.60026 233.210947 
L 136.008316 232.989187 
L 136.743901 232.767427 
L 137.058353 232.434787 
L 139.414946 231.991267 
L 139.465723 231.880387 
L 139.650737 231.658627 
L 139.682966 231.436867 
L 140.489719 231.104227 
L 141.76166 230.882467 
L 142.653649 230.660707 
L 143.125405 230.438947 
L 143.13394 230.328067 
L 144.065803 230.106307 
L 144.499355 229.884547 
L 146.417512 229.662787 
L 146.729606 229.441027 
L 148.463991 229.219267 
L 150.14135 228.997507 
L 152.132882 228.332227 
L 152.349245 228.110467 
L 152.88172 227.888707 
L 152.957177 227.777827 
L 153.892132 227.445187 
L 153.948509 227.334307 
L 154.436286 227.001667 
L 155.230868 226.779907 
L 156.003349 226.225507 
L 156.889506 225.671107 
L 157.010894 225.338467 
L 159.005658 224.673187 
L 160.158907 224.340547 
L 160.183121 224.229667 
L 160.930033 224.007907 
L 161.133637 223.786147 
L 161.352943 223.564387 
L 162.155158 223.120867 
L 162.933002 222.788227 
L 163.1108 222.566467 
L 164.348702 222.344707 
L 164.606287 222.122947 
L 165.197698 221.901187 
L 165.612252 221.568547 
L 165.62545 221.457667 
L 166.128444 221.235907 
L 168.513273 220.237987 
L 170.575375 220.016227 
L 172.000428 219.794467 
L 172.015342 219.683587 
L 172.657809 219.350947 
L 173.296726 218.907427 
L 175.01996 218.353027 
L 176.943332 218.131267 
L 177.406465 217.909507 
L 179.294947 217.687747 
L 179.348472 217.465987 
L 180.003713 217.133347 
L 180.048475 217.022467 
L 180.293027 216.911587 
L 181.066811 216.689827 
L 181.915457 216.246307 
L 183.043482 215.913667 
L 183.458033 215.359267 
L 184.050194 215.137507 
L 184.216199 215.026627 
L 185.238558 214.804867 
L 185.97994 214.583107 
L 186.071257 214.472227 
L 186.603227 214.250467 
L 186.965798 213.806947 
L 187.44126 213.585187 
L 187.796308 213.252547 
L 188.619064 213.030787 
L 188.782149 212.919907 
L 189.989532 212.587267 
L 190.36346 212.365507 
L 190.392239 212.254627 
L 191.207258 212.032867 
L 191.237446 211.811107 
L 191.758292 211.589347 
L 192.174142 211.367587 
L 192.653364 211.034947 
L 193.447327 210.037027 
L 194.438079 209.482627 
L 194.777352 209.039107 
L 195.669386 208.041187 
L 196.236062 207.043267 
L 196.403764 206.932387 
L 197.101141 206.710627 
L 197.112995 206.599747 
L 197.39323 206.377987 
L 197.508459 206.045347 
L 197.61404 205.601827 
L 197.648322 205.490947 
L 198.31645 205.158307 
L 198.341518 205.047427 
L 198.754215 204.825667 
L 199.063276 204.382147 
L 199.456799 203.827747 
L 200.247563 202.497187 
L 200.557532 201.942787 
L 200.783539 201.610147 
L 201.092144 201.388387 
L 201.351076 200.723107 
L 201.445633 200.279587 
L 201.574581 200.057827 
L 201.643078 199.836067 
L 202.157811 199.281667 
L 203.179625 198.061987 
L 203.322696 197.951107 
L 204.112572 197.729347 
L 204.129506 197.618467 
L 204.357407 197.285827 
L 204.48558 196.953187 
L 204.555742 196.620547 
L 205.171525 195.400867 
L 205.175719 195.179107 
L 205.842554 194.846467 
L 205.869665 194.735587 
L 206.126771 194.513827 
L 206.233903 194.292067 
L 206.372521 193.737667 
L 206.750704 193.515907 
L 206.843846 193.294147 
L 206.847968 193.183267 
L 207.214782 192.739747 
L 207.293833 192.517987 
L 207.467436 192.296227 
L 207.6919 191.741827 
L 208.323152 191.187427 
L 208.408379 190.854787 
L 208.568716 190.633027 
L 208.96473 189.745987 
L 208.991648 189.524227 
L 209.137518 189.302467 
L 209.297025 189.080707 
L 210.119731 188.526307 
L 210.156651 188.304547 
L 210.367735 188.082787 
L 210.474156 187.861027 
L 210.929999 186.641347 
L 211.359962 186.419587 
L 211.46544 186.086947 
L 211.467528 185.976067 
L 211.729789 185.754307 
L 212.004056 185.089027 
L 212.176556 184.867267 
L 212.564409 184.312867 
L 212.829842 184.091107 
L 212.988012 183.869347 
L 213.35276 183.536707 
L 213.445747 183.204067 
L 213.660402 182.982307 
L 213.895447 182.095267 
L 214.607034 180.321187 
L 214.805061 179.766787 
L 215.066277 179.434147 
L 215.21892 179.212387 
L 215.4677 178.768867 
L 215.688502 178.547107 
L 216.616589 177.327427 
L 217.03225 176.994787 
L 217.056924 176.883907 
L 217.429809 176.662148 
L 217.628012 176.107747 
L 217.854896 175.885987 
L 217.877916 175.664227 
L 218.146963 175.331587 
L 218.247904 174.777187 
L 218.367259 174.444547 
L 218.702482 173.668387 
L 219.086956 173.335747 
L 219.164857 173.003107 
L 219.185342 172.892227 
L 219.51032 172.559587 
L 220.403887 170.674627 
L 220.576101 170.452867 
L 221.137389 169.565827 
L 221.143763 169.454947 
L 221.316905 169.233187 
L 221.533784 168.789667 
L 221.839803 168.457027 
L 222.038736 167.902627 
L 222.10024 167.459107 
L 222.322704 167.237347 
L 222.403225 166.904707 
L 222.836915 166.572068 
L 222.950334 166.128547 
L 223.504403 165.241507 
L 223.891287 164.132707 
L 224.358074 163.467427 
L 224.543275 162.913027 
L 224.871934 162.358627 
L 225.078113 162.025987 
L 225.196126 161.582467 
L 226.206179 159.143107 
L 226.251051 158.810467 
L 226.498787 158.588707 
L 226.564693 158.366947 
L 226.734061 158.145187 
L 226.780392 157.812547 
L 227.002846 157.369027 
L 227.069788 156.925507 
L 227.229801 156.703747 
L 227.511063 156.481987 
L 227.943501 155.373187 
L 228.142469 155.151427 
L 228.441413 154.707907 
L 228.674252 154.375267 
L 228.782729 153.931747 
L 228.953395 153.709987 
L 228.967421 153.599108 
L 229.230567 153.266467 
L 229.423417 152.601187 
L 229.598892 152.379427 
L 229.736575 152.046787 
L 229.985779 151.714147 
L 230.077022 151.492388 
L 230.287038 151.159747 
L 230.660157 150.161827 
L 231.18961 148.498627 
L 231.353771 148.276867 
L 231.39989 148.055107 
L 231.610612 147.722467 
L 231.69935 147.500707 
L 231.790475 147.057187 
L 231.92945 146.613667 
L 232.025507 146.391908 
L 232.050671 146.170147 
L 232.249717 145.948387 
L 232.551619 145.061347 
L 232.685554 144.728707 
L 232.759699 144.396067 
L 232.956652 144.174307 
L 233.059717 143.619907 
L 233.226027 143.398147 
L 233.413478 142.732867 
L 233.799897 141.845827 
L 233.908076 141.624067 
L 234.224216 141.180547 
L 234.287559 140.958787 
L 234.694326 140.293507 
L 234.978215 139.406467 
L 235.533528 137.521507 
L 235.663348 137.299747 
L 235.778953 136.967107 
L 236.040686 135.969187 
L 236.751545 134.527747 
L 236.787785 134.084227 
L 237.026417 133.751587 
L 237.075534 133.308067 
L 237.233485 133.086307 
L 237.305305 132.864548 
L 238.074672 132.199267 
L 238.281046 131.423107 
L 238.429173 131.090467 
L 238.559098 130.646948 
L 238.783252 130.092547 
L 238.791433 129.981668 
L 239.355771 129.649027 
L 239.485074 129.094628 
L 239.85875 128.872867 
L 240.285098 127.542307 
L 240.289267 127.431427 
L 240.509386 127.209667 
L 240.614799 126.877027 
L 241.008916 126.433507 
L 241.141702 125.768227 
L 241.756689 124.105027 
L 241.864099 123.439747 
L 242.097693 122.996227 
L 242.226867 122.552707 
L 242.655613 120.778627 
L 242.809613 120.445987 
L 243.187454 119.337187 
L 244.541213 116.010787 
L 244.562828 115.789027 
L 244.952641 115.345507 
L 245.062107 115.012867 
L 245.461636 114.125827 
L 245.502363 113.793187 
L 245.630961 113.460547 
L 245.959833 112.240867 
L 246.102627 112.019107 
L 246.505682 110.910307 
L 246.793701 110.355908 
L 247.121997 109.136227 
L 247.752405 107.473028 
L 247.753383 107.362147 
L 247.982926 107.029507 
L 248.357588 106.031587 
L 248.541395 105.144547 
L 248.630542 104.701028 
L 250.083216 100.820227 
L 250.194826 100.487587 
L 250.27779 100.154947 
L 251.205774 98.602627 
L 251.444119 98.380867 
L 251.946895 97.937347 
L 252.02717 97.715587 
L 252.250242 97.493827 
L 252.503657 96.717667 
L 252.821958 96.495907 
L 252.983802 96.163267 
L 253.265255 95.719747 
L 253.957202 94.056547 
L 254.258488 92.836867 
L 254.533497 92.615107 
L 254.657211 91.728067 
L 254.856403 91.395427 
L 254.975127 90.951907 
L 255.040065 90.730147 
L 255.306172 89.953988 
L 255.412724 89.621347 
L 255.573405 89.288707 
L 255.87806 89.066947 
L 256.104491 88.179907 
L 256.288778 87.958147 
L 256.433655 87.292867 
L 256.8434 86.849347 
L 257.102403 86.073187 
L 257.196899 85.851427 
L 257.36493 85.297027 
L 257.503192 84.742627 
L 257.613398 84.520867 
L 258.143056 83.190307 
L 258.658183 82.746787 
L 258.840226 81.970627 
L 259.314487 80.640067 
L 259.927877 79.198627 
L 260.213795 78.644227 
L 260.342962 78.422467 
L 260.556672 77.757187 
L 260.85595 77.091907 
L 261.78974 74.319907 
L 262.199642 74.098147 
L 262.76453 73.543747 
L 262.884471 73.100227 
L 263.088378 72.545828 
L 263.319059 72.324067 
L 263.393755 72.102307 
L 264.206912 71.104387 
L 264.405023 70.549987 
L 264.508726 70.328227 
L 264.819036 70.106467 
L 265.048969 69.552067 
L 265.218958 69.330307 
L 265.453521 68.665027 
L 265.553154 67.999747 
L 266.252828 66.336547 
L 266.341172 66.114787 
L 266.481962 65.893027 
L 266.899776 65.338627 
L 266.96989 65.227747 
L 267.248257 65.005987 
L 267.527787 64.451587 
L 268.023616 64.229827 
L 268.20555 63.786307 
L 268.407754 63.564548 
L 268.408249 63.453667 
L 268.694816 63.121027 
L 268.8338 62.788387 
L 268.848537 62.677507 
L 269.060321 62.455748 
L 269.184184 62.123107 
L 269.201581 62.012227 
L 269.580531 61.679587 
L 269.769914 61.346947 
L 269.899864 61.014307 
L 269.940635 60.681668 
L 270.380273 60.459907 
L 270.644723 60.016388 
L 270.684003 59.794627 
L 271.040967 59.572868 
L 271.742394 58.353187 
L 272.778261 57.133508 
L 272.873702 56.689988 
L 273.060967 56.246467 
L 273.273121 56.024708 
L 273.30375 55.913827 
L 273.526154 55.692067 
L 273.649668 55.470307 
L 274.102931 54.805027 
L 274.606214 53.696227 
L 274.841878 52.809187 
L 275.267173 52.587427 
L 275.408194 52.365667 
L 275.508746 52.033028 
L 275.667254 51.811267 
L 275.785135 51.589507 
L 276.022826 51.367747 
L 276.467711 51.145987 
L 276.505899 51.035107 
L 276.681081 50.813347 
L 276.811427 50.480707 
L 276.987425 50.258947 
L 277.016128 50.148067 
L 277.683674 49.593667 
L 277.830761 49.261028 
L 278.244211 48.928387 
L 278.500152 48.706627 
L 278.660005 48.484867 
L 278.665526 48.373987 
L 279.041645 47.930467 
L 279.443302 46.821667 
L 279.792926 46.599908 
L 279.946653 46.378147 
L 280.233783 46.156387 
L 280.344045 45.823747 
L 280.917985 44.825828 
L 281.105316 44.604067 
L 281.122283 44.493187 
L 281.571734 44.049667 
L 281.6597 43.827907 
L 281.731665 43.606147 
L 282.437387 43.384387 
L 283.470343 42.719107 
L 283.49813 42.497347 
L 283.987771 42.164707 
L 284.126823 41.721187 
L 284.31749 41.499427 
L 284.600557 41.277667 
L 285.59367 40.612387 
L 285.651482 40.501507 
L 286.282227 40.279747 
L 287.120431 39.503587 
L 287.396319 39.281827 
L 287.419877 39.170947 
L 288.706631 38.727427 
L 288.817684 38.505667 
L 288.939658 38.394787 
L 289.393096 38.173027 
L 289.80842 37.396867 
L 290.273728 36.953347 
L 290.312946 36.842467 
L 290.663683 36.509827 
L 290.724301 36.066307 
L 291.385614 35.733667 
L 292.056137 35.511907 
L 292.154486 35.179268 
L 293.244895 34.513988 
L 293.279081 34.403107 
L 293.587463 34.181347 
L 294.135119 33.405188 
L 294.152358 33.294307 
L 294.491923 33.072547 
L 294.619547 32.850787 
L 294.670536 32.629027 
L 295.234658 32.407267 
L 295.325735 32.296388 
L 296.290206 32.074627 
L 296.407144 31.741987 
L 296.454606 31.631107 
L 296.700233 31.409347 
L 297.023824 30.965827 
L 297.025713 30.854947 
L 297.289826 30.633187 
L 297.298875 30.522307 
L 297.82809 30.078788 
L 297.979688 29.857027 
L 298.065185 29.746147 
L 299.188449 29.413508 
L 301.395158 27.861187 
L 301.95019 27.639427 
L 302.177889 27.306787 
L 302.876856 26.863267 
L 302.927713 26.641507 
L 303.676347 26.419747 
L 303.942396 26.197987 
L 304.536917 25.976227 
L 304.575162 25.865347 
L 305.688061 25.421827 
L 305.743007 25.310947 
L 306.139671 24.978307 
L 306.159798 24.867427 
L 307.256085 24.313028 
L 308.085128 24.091267 
L 308.963239 23.758627 
L 311.042164 23.536867 
L 311.185585 23.425987 
L 312.452916 23.204228 
L 312.907276 23.093347 
L 315.379503 22.871587 
L 316.305405 22.760707 
L 329.477519 22.428067 
L 363.623264 22.317187 
L 363.623264 22.317187 
" clip-path="url(#p8f236cf3d6)" style="fill: none; stroke: #b83239; stroke-width: 1.5; stroke-linecap: square"/>
   </g>
   <g id="line2d_11">
    <path d="M 59.322088 243.966307 
L 61.593822 243.855427 
L 76.225138 243.633667 
L 84.017508 243.301027 
L 85.112227 243.190147 
L 93.00125 242.968387 
L 98.132214 242.746627 
L 98.257887 242.635747 
L 102.672724 242.303107 
L 102.963115 242.192227 
L 104.99118 241.970467 
L 106.901618 241.637827 
L 110.638621 241.416067 
L 112.977975 241.083427 
L 116.364236 240.861667 
L 117.435007 240.750787 
L 125.575242 240.529027 
L 126.052396 240.418147 
L 135.574574 239.974627 
L 137.158406 239.641987 
L 138.984462 239.420227 
L 141.980117 239.198467 
L 142.648093 239.087587 
L 147.06695 238.865827 
L 147.329178 238.754947 
L 148.781638 238.533187 
L 148.950682 238.422307 
L 156.742299 237.313507 
L 161.109856 237.091747 
L 166.667351 236.537347 
L 167.16649 236.426467 
L 171.764657 235.982947 
L 171.836829 235.872067 
L 172.741518 235.650307 
L 172.98329 235.428547 
L 174.135126 235.206787 
L 174.16633 235.095907 
L 176.315734 234.763267 
L 176.490247 234.652387 
L 179.497703 234.430627 
L 179.636494 234.208867 
L 180.853014 233.987107 
L 185.410833 233.765347 
L 185.53763 233.654467 
L 187.000152 233.432707 
L 187.135035 233.321827 
L 190.106008 233.100067 
L 191.279408 232.545667 
L 191.375106 232.434787 
L 192.926627 232.213027 
L 193.080109 231.991267 
L 193.199092 231.880387 
L 194.644847 231.215107 
L 195.740953 230.660707 
L 195.781672 230.549827 
L 196.332596 230.217187 
L 196.474409 230.106307 
L 197.51951 229.773667 
L 197.53182 229.662787 
L 197.656199 229.441027 
L 197.686746 229.330147 
L 198.932356 228.664867 
L 199.385622 228.443107 
L 199.676308 228.332227 
L 200.47841 228.110467 
L 201.098307 227.888707 
L 201.177675 227.666947 
L 201.726112 227.001667 
L 201.777906 226.779907 
L 202.390058 226.558147 
L 202.443545 226.447267 
L 203.025144 226.114627 
L 203.063525 226.003747 
L 203.301875 225.781987 
L 203.332064 225.671107 
L 203.48388 225.560227 
L 204.113527 225.338467 
L 204.46505 224.673187 
L 204.62977 224.562307 
L 205.047117 224.340547 
L 205.209943 224.118787 
L 205.289857 223.786147 
L 206.063322 223.231747 
L 206.233341 223.009987 
L 206.699267 222.677347 
L 206.74848 222.455587 
L 207.041526 222.233827 
L 207.046019 222.122947 
L 207.537617 221.901187 
L 208.538275 221.568547 
L 208.57387 221.457667 
L 209.11147 221.014147 
L 209.115483 220.903267 
L 209.447737 220.681507 
L 209.794817 220.459747 
L 209.954839 220.237987 
L 210.554517 219.794467 
L 210.657014 219.572707 
L 210.846023 219.350947 
L 210.93152 219.129187 
L 211.186488 218.685667 
L 211.386012 218.353027 
L 211.78468 218.131267 
L 211.94316 217.909507 
L 212.000258 217.798627 
L 212.547382 217.465987 
L 212.560331 217.355107 
L 213.975355 216.357187 
L 214.460761 216.135427 
L 214.699014 215.691907 
L 215.191154 215.470147 
L 215.463465 214.915747 
L 215.825127 214.583107 
L 215.963246 213.917827 
L 216.156285 213.474307 
L 216.483041 213.252547 
L 216.829317 213.030787 
L 217.448701 212.587267 
L 217.693828 212.143747 
L 218.115679 211.921988 
L 218.131218 211.811107 
L 218.298092 211.589347 
L 218.56031 211.145827 
L 218.8348 210.813187 
L 219.239895 210.037027 
L 219.516554 209.815267 
L 219.907555 209.039107 
L 220.003222 208.484707 
L 220.376882 208.262947 
L 220.635238 208.041187 
L 220.751967 207.597667 
L 221.13868 207.375907 
L 221.704056 207.043267 
L 221.834842 206.821507 
L 222.349934 206.599747 
L 222.711371 206.045347 
L 222.94791 205.712707 
L 223.355316 204.936547 
L 223.967291 204.714787 
L 224.426306 204.160387 
L 225.079851 203.051587 
L 225.155981 202.718947 
L 225.268481 202.275427 
L 225.625388 201.942787 
L 225.657723 201.831907 
L 225.87171 201.610147 
L 226.274939 201.166627 
L 226.540427 200.944867 
L 226.610679 200.723107 
L 226.821291 200.390467 
L 227.053647 199.836067 
L 227.220541 199.503427 
L 227.320343 198.949027 
L 227.576978 198.616387 
L 227.701737 198.172867 
L 228.59745 197.396707 
L 228.598997 197.285827 
L 228.863888 197.064067 
L 229.111558 196.620547 
L 229.389205 196.398787 
L 229.578624 196.177027 
L 229.795071 195.400867 
L 229.998741 195.068227 
L 230.250874 194.624707 
L 230.265504 194.513827 
L 230.468607 194.292067 
L 230.592279 193.959427 
L 231.143297 192.296227 
L 231.555904 191.741827 
L 231.641161 191.409187 
L 231.941459 191.187427 
L 232.124775 190.965667 
L 232.169519 190.743907 
L 232.519609 190.300387 
L 232.523366 190.189507 
L 232.907984 189.856867 
L 233.011195 189.524227 
L 233.295156 189.302467 
L 233.580337 188.969827 
L 233.597913 188.858947 
L 233.856852 188.637187 
L 234.161122 187.971907 
L 234.399593 187.750147 
L 234.533047 187.306627 
L 234.761463 186.419587 
L 235.078344 186.197827 
L 235.191609 185.865187 
L 235.463755 185.643427 
L 235.513629 185.421667 
L 235.739351 184.978147 
L 235.784821 184.756387 
L 235.877525 184.534627 
L 236.254957 183.314947 
L 236.416662 182.982307 
L 236.703035 182.427907 
L 236.8716 182.206147 
L 237.013136 181.540867 
L 237.1344 181.097347 
L 237.455887 180.875587 
L 237.645882 180.653827 
L 237.852644 180.099427 
L 238.216396 179.434147 
L 238.310037 178.990627 
L 238.454203 178.768867 
L 239.101769 177.438307 
L 239.420409 177.105667 
L 239.590884 176.551267 
L 239.713359 176.329507 
L 239.723777 176.218627 
L 240.008891 175.996867 
L 240.090047 175.775107 
L 240.367566 175.442467 
L 240.475765 174.888067 
L 240.692886 174.222787 
L 240.910518 174.001027 
L 241.148902 173.335747 
L 241.340406 173.003107 
L 241.78018 172.448707 
L 241.887402 172.005187 
L 242.0571 171.783427 
L 242.460345 170.452867 
L 242.571694 170.231107 
L 242.793637 169.676707 
L 242.955187 169.344067 
L 243.082379 168.789667 
L 243.810565 167.348228 
L 244.031046 166.793827 
L 244.171184 166.461187 
L 244.210654 166.239427 
L 244.329649 165.906788 
L 244.764604 164.465348 
L 244.845209 164.243587 
L 245.066771 163.578307 
L 245.220464 162.913027 
L 245.64205 161.693347 
L 245.973599 161.471587 
L 246.29535 160.917187 
L 246.483581 160.695427 
L 246.541219 160.473667 
L 246.718425 160.251907 
L 246.834785 159.808387 
L 246.91058 159.364868 
L 247.666856 158.699587 
L 248.231316 156.925507 
L 248.540577 156.703747 
L 248.613245 156.149347 
L 249.369853 155.040547 
L 249.524033 154.597027 
L 249.640929 154.264387 
L 249.67119 154.042627 
L 249.924679 153.820867 
L 250.096953 153.599108 
L 250.395129 152.046787 
L 250.518814 151.714147 
L 250.642041 151.492388 
L 250.739097 151.270627 
L 250.753972 151.159747 
L 250.911168 150.937987 
L 251.280031 149.718307 
L 251.383444 149.496547 
L 252.091586 147.168067 
L 252.331416 146.946307 
L 252.369942 146.835427 
L 252.636085 146.613667 
L 253.088157 145.837507 
L 253.29504 145.615747 
L 253.465984 145.283107 
L 253.633332 144.617827 
L 253.922481 144.396067 
L 254.042435 143.841667 
L 254.100864 143.287267 
L 254.625136 142.400227 
L 254.73107 141.624067 
L 254.867235 141.180547 
L 255.053881 140.404387 
L 256.406437 136.412707 
L 256.716527 135.525667 
L 257.141307 134.638627 
L 257.259494 134.195108 
L 257.424906 133.751587 
L 257.512486 133.197187 
L 257.700507 132.975427 
L 259.29041 128.096707 
L 259.613146 127.542307 
L 259.950513 126.322627 
L 260.205568 125.435587 
L 260.719045 123.772387 
L 260.919582 123.550627 
L 261.52406 122.109187 
L 261.71891 121.443907 
L 262.556991 119.115427 
L 262.582428 118.893667 
L 262.777559 118.561027 
L 263.506293 116.897827 
L 263.613208 116.565187 
L 263.764789 116.343427 
L 263.868269 116.010787 
L 264.823093 113.571427 
L 264.978409 113.349667 
L 265.164195 112.906147 
L 265.211759 112.684387 
L 265.433297 112.462627 
L 265.925813 110.245027 
L 266.011537 110.023267 
L 266.126387 109.579747 
L 266.256782 109.136227 
L 266.372667 108.803587 
L 266.537833 108.249187 
L 266.656981 108.027427 
L 266.668209 107.916547 
L 266.821841 107.694787 
L 267.403718 105.809827 
L 267.50899 105.477187 
L 267.698463 104.922787 
L 267.904865 104.257508 
L 267.964158 103.924867 
L 267.969912 103.813987 
L 268.179437 103.592228 
L 268.265453 103.259587 
L 268.40873 102.705187 
L 268.497501 102.261667 
L 268.849328 101.485507 
L 268.914375 100.931107 
L 269.061042 100.598467 
L 270.240182 97.715587 
L 270.527585 97.493827 
L 270.667356 97.050307 
L 270.909075 96.385027 
L 271.041579 95.830627 
L 271.387279 95.054467 
L 272.545361 91.173667 
L 272.704791 90.951907 
L 273.545897 88.401668 
L 273.804339 88.179907 
L 274.136712 86.849347 
L 274.270065 86.405827 
L 274.322235 86.073187 
L 274.548787 85.629667 
L 275.000715 83.855587 
L 275.141659 83.633827 
L 275.226232 83.190307 
L 275.338254 82.968547 
L 275.454598 82.525027 
L 275.873662 81.416227 
L 275.982138 80.972707 
L 276.292921 80.640067 
L 276.492552 79.531267 
L 276.865646 78.865987 
L 276.97992 78.422467 
L 277.222735 78.200707 
L 277.300446 77.646308 
L 277.527187 77.313667 
L 277.677092 76.870147 
L 277.757108 76.426627 
L 278.008671 76.093987 
L 278.625624 74.209027 
L 278.946896 73.876387 
L 279.415629 73.654628 
L 279.660333 72.878467 
L 279.922183 72.324067 
L 280.025474 71.880548 
L 280.156003 71.658787 
L 280.604977 70.993507 
L 280.84439 70.549987 
L 280.934427 70.106467 
L 281.261691 69.884707 
L 281.419669 69.662948 
L 281.528958 69.330307 
L 281.66468 69.108547 
L 281.902394 68.332387 
L 282.022734 68.110627 
L 282.36659 67.001827 
L 282.808918 65.782147 
L 282.918744 65.560387 
L 283.741454 63.010147 
L 283.935504 62.788387 
L 284.149189 61.901347 
L 284.355494 61.679587 
L 284.359392 61.568707 
L 284.657186 61.236067 
L 284.777221 60.903427 
L 284.985708 60.570787 
L 285.197164 60.016388 
L 285.438039 59.351107 
L 285.754231 59.129347 
L 285.889628 58.574947 
L 286.741247 56.800867 
L 286.795131 56.468227 
L 286.998947 56.246467 
L 287.348572 55.692067 
L 287.451717 55.470307 
L 287.615977 54.915908 
L 287.854624 54.694147 
L 288.349487 54.472387 
L 288.777583 53.474467 
L 288.973632 53.252707 
L 288.988596 52.920067 
L 289.435068 52.587427 
L 289.674424 52.033028 
L 290.161737 51.700387 
L 290.258688 51.256867 
L 290.560913 50.591587 
L 290.78626 50.369827 
L 290.911518 49.815427 
L 291.086971 49.482788 
L 291.318319 49.150147 
L 291.76516 48.484867 
L 292.019861 47.597827 
L 292.362551 47.154307 
L 292.498805 46.932547 
L 292.768964 46.599908 
L 293.091977 46.378147 
L 293.35067 46.156387 
L 293.654552 45.601987 
L 293.664764 45.491107 
L 293.809382 45.269348 
L 293.881715 45.047587 
L 294.450467 44.825828 
L 294.524685 44.604067 
L 294.909814 44.382307 
L 295.796186 42.386467 
L 296.005088 41.721187 
L 296.264762 41.499427 
L 296.313305 41.388547 
L 296.600438 41.166787 
L 296.634519 41.055907 
L 296.984917 40.834148 
L 297.1412 40.612387 
L 297.477608 40.390627 
L 297.647424 40.057987 
L 297.859698 39.836227 
L 297.882975 39.725347 
L 298.090805 39.503587 
L 298.192724 39.170947 
L 298.398961 38.949187 
L 298.527153 38.616547 
L 298.946584 37.951268 
L 299.382473 37.285987 
L 299.736174 37.064227 
L 299.738465 36.953347 
L 300.055123 36.620707 
L 300.069165 36.398947 
L 300.708747 36.177188 
L 300.786269 35.844548 
L 301.255471 35.622787 
L 301.475295 34.957507 
L 302.358174 34.403107 
L 302.598022 34.070468 
L 302.821253 33.516067 
L 303.662306 33.294307 
L 303.924741 32.850787 
L 304.24464 32.407267 
L 304.440676 32.185507 
L 304.771123 31.741987 
L 305.155839 31.520227 
L 305.209736 31.298467 
L 306.907224 30.522307 
L 306.924853 30.411427 
L 307.593471 30.189667 
L 308.227933 29.635267 
L 308.644014 29.413508 
L 308.672917 29.191747 
L 309.746296 28.859107 
L 310.17547 28.304708 
L 311.636064 27.639427 
L 311.683315 27.528547 
L 312.517106 27.195908 
L 314.314345 26.974147 
L 314.569167 26.752387 
L 314.726193 26.641507 
L 316.987775 25.865347 
L 317.326303 25.643587 
L 317.439548 25.532707 
L 319.995275 25.200067 
L 320.722201 24.978307 
L 322.216641 24.756547 
L 322.48924 24.534787 
L 323.424811 24.313028 
L 323.493791 24.202147 
L 323.694178 24.091267 
L 325.445486 23.869507 
L 325.990323 23.758627 
L 329.463934 23.536867 
L 334.475588 22.871587 
L 353.827347 22.317187 
L 353.827347 22.317187 
" clip-path="url(#p8f236cf3d6)" style="fill: none; stroke: #243f65; stroke-width: 1.5; stroke-linecap: square"/>
   </g>
   <g id="line2d_12">
    <path d="M 64.40616 243.966307 
L 69.365341 243.411907 
L 77.083601 243.190147 
L 77.675592 242.968387 
L 80.566397 242.635747 
L 81.350426 242.303107 
L 81.416746 242.192227 
L 84.473737 241.859587 
L 85.409164 241.637827 
L 85.564699 241.526947 
L 86.802617 241.194307 
L 88.033171 240.972547 
L 88.953831 240.750787 
L 94.242684 239.974627 
L 94.703001 239.752867 
L 95.570898 239.420227 
L 95.582544 239.309347 
L 96.297266 238.976707 
L 100.964506 238.644067 
L 101.083516 238.311427 
L 103.933535 237.202627 
L 105.184962 236.980867 
L 105.286339 236.869987 
L 106.252606 236.648227 
L 108.234462 236.426467 
L 108.849047 236.204707 
L 111.070214 235.982947 
L 111.995044 235.650307 
L 112.728698 235.095907 
L 114.111475 234.763267 
L 114.142679 234.652387 
L 114.384828 234.541507 
L 115.694111 234.319747 
L 116.505262 234.097987 
L 116.743148 233.876227 
L 116.844232 233.765347 
L 117.420956 233.543587 
L 117.774087 233.321827 
L 118.793531 232.878307 
L 119.938442 232.323907 
L 121.44512 231.991267 
L 122.03622 231.547747 
L 122.460932 231.215107 
L 122.569772 231.104227 
L 123.138351 230.882467 
L 124.338319 230.660707 
L 124.564266 230.438947 
L 125.28079 229.884547 
L 125.439007 229.662787 
L 126.263904 229.330147 
L 126.331039 229.219267 
L 128.039166 228.997507 
L 128.134889 228.886627 
L 129.322787 228.664867 
L 129.582146 228.553987 
L 131.054245 228.332227 
L 131.145926 228.221347 
L 131.809656 227.999587 
L 132.818742 227.556067 
L 132.897743 227.334307 
L 133.164693 227.001667 
L 135.074718 226.447267 
L 135.449564 226.225507 
L 135.721696 226.003747 
L 136.398821 225.781987 
L 136.479316 225.671107 
L 137.143403 225.449347 
L 137.409629 225.227587 
L 138.531525 224.118787 
L 138.709021 224.007907 
L 139.422522 223.786147 
L 139.508287 223.675267 
L 141.504673 223.120867 
L 141.544041 222.899107 
L 142.324125 222.455587 
L 144.477088 222.012067 
L 144.554306 221.901187 
L 144.870235 221.679427 
L 144.971159 221.346787 
L 145.111472 221.235907 
L 146.64998 221.014147 
L 146.751044 220.903267 
L 147.2596 220.681507 
L 147.413555 220.570627 
L 147.761157 220.459747 
L 149.406102 220.127107 
L 149.594001 220.016227 
L 150.4687 219.794467 
L 150.514161 219.683587 
L 150.952158 219.461827 
L 151.948471 219.240067 
L 152.131629 219.129187 
L 152.643946 218.907427 
L 152.76886 218.685667 
L 152.780744 218.574787 
L 153.798044 217.909507 
L 155.252817 217.576867 
L 155.295304 217.465987 
L 157.617046 216.578947 
L 157.707734 216.357187 
L 158.659343 215.691907 
L 158.686807 215.581027 
L 159.162514 215.359267 
L 159.506301 215.137507 
L 159.931483 215.026627 
L 161.331395 214.804867 
L 161.352104 214.693987 
L 161.699992 214.472227 
L 161.704923 214.361347 
L 162.595318 214.139587 
L 162.598219 214.028707 
L 163.590898 213.696067 
L 163.732083 213.585187 
L 164.566499 213.252547 
L 164.669314 213.141667 
L 165.430401 212.919907 
L 165.472789 212.809027 
L 165.901442 212.587267 
L 166.053148 212.254627 
L 167.811923 212.032867 
L 170.100107 211.811107 
L 170.636709 211.256707 
L 171.606875 211.034947 
L 172.217532 210.480547 
L 172.700539 210.258787 
L 172.728113 210.147907 
L 173.376298 209.926147 
L 173.41208 209.815267 
L 173.954726 209.593507 
L 175.49114 208.706467 
L 176.802662 208.484707 
L 177.42478 208.262947 
L 178.530159 207.597667 
L 179.083955 207.375907 
L 179.839307 207.154147 
L 180.525534 206.932387 
L 182.45363 206.156227 
L 182.594805 205.934467 
L 184.286135 204.936547 
L 186.037906 204.603907 
L 186.471286 204.382147 
L 188.716175 203.938627 
L 188.722638 203.827747 
L 189.512132 203.605987 
L 191.066416 202.718947 
L 191.206793 202.497187 
L 191.278386 202.386307 
L 191.702349 202.164547 
L 191.813453 201.831907 
L 191.849203 201.721027 
L 192.046133 201.499267 
L 192.781318 200.723107 
L 192.859573 200.279587 
L 193.042452 200.057827 
L 193.083865 199.946947 
L 193.364571 199.725187 
L 193.534245 199.503427 
L 194.15199 199.281667 
L 194.184489 199.170787 
L 194.452254 198.949027 
L 194.457379 198.727267 
L 194.696436 198.616387 
L 195.265988 198.394627 
L 195.459843 197.951107 
L 195.475293 197.840227 
L 195.792893 197.618467 
L 195.923751 197.285827 
L 196.17313 196.842307 
L 196.241947 196.620547 
L 196.61041 196.398787 
L 196.797582 195.955267 
L 197.203948 195.179107 
L 197.328586 194.957347 
L 197.415143 194.735587 
L 197.51032 194.513827 
L 198.326995 193.848547 
L 198.645501 192.961507 
L 198.67994 192.850627 
L 198.87164 192.628867 
L 199.058446 192.185347 
L 199.497992 191.963587 
L 199.826899 190.965667 
L 200.200584 190.743907 
L 200.354856 190.189507 
L 200.668344 189.967747 
L 201.067336 189.745987 
L 201.417936 188.858947 
L 201.61418 188.637187 
L 201.713953 188.415427 
L 202.326945 187.528387 
L 202.844781 186.973987 
L 202.942146 186.530467 
L 203.048672 186.308707 
L 203.106479 186.086947 
L 203.345147 185.754307 
L 203.652481 185.532547 
L 203.680211 185.310787 
L 203.87631 185.089027 
L 204.207984 184.645507 
L 205.254871 182.871427 
L 205.605572 182.649667 
L 205.678646 182.317027 
L 206.017058 181.873507 
L 206.379079 181.651747 
L 206.552173 181.319107 
L 206.621681 181.208227 
L 207.187703 180.875587 
L 207.875377 179.877667 
L 207.994476 179.545028 
L 209.562961 176.440387 
L 209.921287 176.107747 
L 209.976052 175.885987 
L 210.128581 175.775107 
L 210.545616 175.553347 
L 210.789496 175.331587 
L 210.981573 174.888067 
L 211.257016 174.333667 
L 211.305084 174.111907 
L 211.417628 173.890147 
L 213.228245 167.902627 
L 213.425525 167.680867 
L 213.662636 167.348228 
L 213.949759 167.126467 
L 214.05084 166.904707 
L 214.117333 166.682947 
L 214.401452 166.350307 
L 214.546215 166.128547 
L 215.001683 165.906788 
L 215.224223 165.241507 
L 215.417351 164.908867 
L 215.617464 164.354467 
L 215.67971 164.243587 
L 215.960017 164.021827 
L 216.248636 163.467427 
L 216.384196 163.134787 
L 216.60067 162.913027 
L 216.632711 162.580387 
L 216.862592 162.247748 
L 217.158955 161.249827 
L 217.533762 160.362787 
L 217.641588 159.808387 
L 217.848726 159.475747 
L 217.909269 159.143107 
L 218.612795 158.921347 
L 218.740958 158.588707 
L 218.806511 158.256067 
L 218.974113 158.034307 
L 219.091083 157.369027 
L 219.415107 157.147267 
L 219.500372 156.814627 
L 219.605328 156.481987 
L 219.966644 155.040547 
L 220.026388 154.707907 
L 220.11981 154.486147 
L 220.383439 154.264387 
L 220.468386 153.820867 
L 220.789337 153.488227 
L 220.890013 153.044707 
L 221.049223 152.822947 
L 221.124609 152.601187 
L 221.347859 152.268547 
L 221.510478 151.714147 
L 221.604866 151.492388 
L 221.676343 151.048867 
L 221.774015 150.605347 
L 221.863084 150.272707 
L 221.881988 150.050948 
L 221.980699 149.940067 
L 222.368927 149.718307 
L 222.788582 148.831267 
L 223.038556 148.055107 
L 223.407206 147.168067 
L 223.45664 146.835427 
L 223.73955 146.502787 
L 223.840627 146.170147 
L 223.927958 145.837507 
L 224.073179 145.615747 
L 224.353686 144.728707 
L 224.86312 144.174307 
L 224.96816 143.619907 
L 225.072094 143.287267 
L 225.252861 142.511107 
L 225.921142 141.956707 
L 225.922163 141.845827 
L 226.140763 141.624067 
L 226.267708 141.291427 
L 226.297323 141.069667 
L 226.527724 140.737027 
L 226.717789 140.404387 
L 226.869169 140.071747 
L 226.869309 139.960868 
L 227.197629 139.628227 
L 227.276792 139.073827 
L 227.58801 138.852067 
L 227.723229 138.630307 
L 227.80846 138.408547 
L 227.883377 137.854147 
L 228.129309 137.410627 
L 228.368677 136.967107 
L 228.742031 136.080067 
L 229.241656 135.747427 
L 229.580871 135.303907 
L 229.82301 134.638627 
L 229.940327 134.416867 
L 229.984604 134.195108 
L 230.318747 133.973347 
L 230.49135 133.529827 
L 230.728628 132.531907 
L 231.100761 132.199267 
L 231.302065 131.866627 
L 231.393642 131.533987 
L 231.515921 131.090467 
L 231.795579 130.646948 
L 232.140936 130.203427 
L 232.161096 130.092547 
L 232.370456 129.870787 
L 232.533779 129.427267 
L 233.680276 127.764067 
L 233.782828 127.431427 
L 233.932479 127.209667 
L 233.951587 126.987907 
L 234.143428 126.766147 
L 234.344025 126.433507 
L 234.78646 125.657347 
L 234.904321 125.102947 
L 235.303893 124.105027 
L 235.547591 123.661507 
L 235.601982 123.328867 
L 235.867743 122.996227 
L 236.337471 121.443907 
L 236.747738 120.667747 
L 236.840611 120.445987 
L 237.020638 120.113347 
L 237.255646 119.115427 
L 237.39775 118.893667 
L 237.49222 118.561027 
L 237.749603 118.228387 
L 237.829674 117.895747 
L 237.948238 117.230467 
L 238.23214 116.454307 
L 238.374184 116.232547 
L 238.463863 116.010787 
L 238.650565 115.678147 
L 238.681153 115.234627 
L 239.073493 114.680227 
L 239.318388 114.014947 
L 239.453747 113.793187 
L 239.675167 113.571427 
L 239.788625 113.238788 
L 240.164662 112.684387 
L 240.251228 112.462627 
L 240.597939 112.129987 
L 240.839149 111.464708 
L 241.138928 111.132067 
L 241.269793 110.577667 
L 241.892794 108.581827 
L 242.06751 107.694787 
L 242.296246 107.473028 
L 242.772988 106.253347 
L 242.828127 106.142467 
L 243.011916 105.920707 
L 243.103425 105.477187 
L 243.452009 103.481347 
L 243.611309 103.148708 
L 243.682599 102.926947 
L 244.121704 102.705187 
L 244.838737 101.818147 
L 244.897173 101.596387 
L 245.031758 101.374628 
L 245.321144 100.820227 
L 246.575249 98.159107 
L 247.068687 96.495907 
L 247.414002 96.274147 
L 247.743463 95.387107 
L 248.023714 94.943587 
L 248.163071 94.500068 
L 248.353878 94.056547 
L 248.976564 92.947747 
L 249.463427 92.504227 
L 249.533518 92.060707 
L 250.626837 90.286627 
L 250.720312 90.064867 
L 250.992369 89.732227 
L 251.086215 89.510468 
L 251.464721 89.288707 
L 252.600457 86.627588 
L 252.753843 86.294947 
L 252.887136 85.851427 
L 253.05255 85.629667 
L 253.170685 85.186147 
L 253.440755 84.409987 
L 254.111052 83.190307 
L 254.293805 82.635908 
L 254.43521 82.414147 
L 254.578792 82.081507 
L 254.784568 81.859747 
L 254.964068 81.416227 
L 255.016085 81.194467 
L 255.232624 80.972707 
L 255.284883 80.640067 
L 255.744129 80.196547 
L 256.922346 77.313667 
L 257.089929 77.091907 
L 257.113674 76.981028 
L 257.279222 76.759267 
L 257.36848 76.426627 
L 257.639011 76.093987 
L 257.699879 75.761347 
L 258.106688 75.317827 
L 258.534969 74.763428 
L 258.980872 73.543747 
L 259.366766 73.321987 
L 259.731715 72.545828 
L 259.798419 72.102307 
L 260.003892 71.880548 
L 260.031671 71.769667 
L 260.524684 71.326147 
L 260.835911 70.771748 
L 261.036583 70.439107 
L 261.21208 70.217347 
L 261.554206 69.441187 
L 261.831322 69.219427 
L 262.02728 68.775907 
L 262.28436 68.443267 
L 262.596379 67.777987 
L 263.294146 66.669187 
L 263.801595 65.671267 
L 264.149798 65.449507 
L 264.3166 65.227747 
L 264.686494 65.005987 
L 265.137379 64.562467 
L 266.154604 63.231907 
L 266.234945 62.899268 
L 266.450209 62.677507 
L 266.944682 61.901347 
L 267.070997 61.568707 
L 267.219785 61.346947 
L 267.513415 60.681668 
L 267.987309 60.459907 
L 268.116052 60.238147 
L 268.625979 59.905507 
L 268.870126 59.683747 
L 269.00013 59.351107 
L 269.44075 59.018467 
L 269.532252 58.796707 
L 269.687481 58.020547 
L 269.705153 57.798788 
L 270.142803 57.577027 
L 270.8152 56.135587 
L 270.81555 56.024708 
L 271.440732 55.692067 
L 271.523021 55.470307 
L 271.84016 55.248547 
L 271.846212 55.026787 
L 272.092545 54.805027 
L 272.121572 54.694147 
L 272.42476 54.472387 
L 272.732483 53.917987 
L 273.094992 53.474467 
L 273.21499 53.030947 
L 273.454544 52.698307 
L 273.665963 52.254787 
L 274.034461 51.922147 
L 274.555981 50.924228 
L 274.921666 50.702467 
L 274.958233 50.480707 
L 275.24568 50.258947 
L 275.372876 49.926308 
L 275.809781 49.482788 
L 275.899666 49.261028 
L 276.416343 49.039267 
L 276.543183 48.706627 
L 276.960568 48.484867 
L 277.064974 48.263107 
L 277.087372 48.152228 
L 277.35741 47.930467 
L 277.619236 47.708708 
L 277.74793 47.486947 
L 278.079294 46.821667 
L 278.27412 46.599908 
L 278.296 46.267267 
L 278.969254 45.934628 
L 279.113121 45.601987 
L 279.378939 45.380227 
L 279.381568 45.269348 
L 279.763838 45.047587 
L 279.906036 44.604067 
L 280.439534 44.382307 
L 280.639858 43.938787 
L 280.816839 43.606147 
L 281.34286 43.384387 
L 281.918187 43.051748 
L 282.011314 42.829987 
L 282.270018 42.608227 
L 282.372079 42.386467 
L 283.42367 41.942948 
L 283.904272 41.499427 
L 284.098532 41.166787 
L 284.290776 40.834148 
L 285.036687 40.168868 
L 285.127167 39.947107 
L 285.232021 39.725347 
L 285.235905 39.614467 
L 285.94592 39.281827 
L 286.104698 38.949187 
L 286.715975 38.616547 
L 288.873962 37.507747 
L 288.955438 37.175107 
L 289.869295 36.620707 
L 289.93028 36.288067 
L 290.330224 35.733667 
L 290.575459 35.511907 
L 290.863254 35.179268 
L 292.261294 34.846627 
L 292.341441 34.292227 
L 293.2174 33.848707 
L 293.222216 33.737827 
L 293.97433 33.072547 
L 294.163006 32.518147 
L 294.583221 32.296388 
L 294.644085 31.963747 
L 295.024462 31.520227 
L 295.745161 31.298467 
L 295.836797 31.076707 
L 296.491891 30.744067 
L 299.104139 29.191747 
L 299.170457 29.080867 
L 299.675587 28.859107 
L 300.152233 28.526467 
L 300.203074 28.304708 
L 300.815866 27.972067 
L 301.163595 27.750307 
L 301.716925 27.528547 
L 302.229176 27.306787 
L 302.289523 27.195908 
L 302.685399 26.974147 
L 302.688988 26.863267 
L 303.043686 26.530627 
L 303.073659 26.308867 
L 303.391398 26.087108 
L 303.584263 25.976227 
L 305.480649 25.643587 
L 305.496231 25.532707 
L 305.777556 25.200067 
L 306.004023 24.867427 
L 306.213839 24.756547 
L 307.238202 24.534787 
L 307.412557 24.313028 
L 307.69018 24.091267 
L 307.710653 23.980387 
L 309.743162 23.425987 
L 314.985946 22.871587 
L 315.178723 22.760707 
L 329.570362 22.428067 
L 363.685724 22.317187 
L 363.685724 22.317187 
" clip-path="url(#p8f236cf3d6)" style="fill: none; stroke: #ff7f0e; stroke-width: 1.5; stroke-linecap: square"/>
   </g>
   <g id="patch_3">
    <path d="M 44.103906 244.077187 
L 44.103906 22.317187 
" style="fill: none; stroke: #000000; stroke-width: 0.8; stroke-linejoin: miter; stroke-linecap: square"/>
   </g>
   <g id="patch_4">
    <path d="M 44.103906 244.077187 
L 378.903906 244.077187 
" style="fill: none; stroke: #000000; stroke-width: 0.8; stroke-linejoin: miter; stroke-linecap: square"/>
   </g>
   <g id="text_12">
    <text style="font-weight: 700; font-size: 12px; font-family: 'DejaVu Sans'; text-anchor: start" x="44.103906" y="16.317187" transform="rotate(-0 44.103906 16.317187)">MNIST OOS</text>
   </g>
   <g id="legend_1">
    <g id="line2d_13">
     <path d="M 51.303906 32.795937 
L 59.303906 32.795937 
L 67.303906 32.795937 
" style="fill: none; stroke: #b83239; stroke-width: 1.5; stroke-linecap: square"/>
    </g>
    <g id="text_13">
     <text style="font-size: 8px; font-family: 'DejaVu Sans'; text-anchor: start" x="73.703906" y="35.595937" transform="rotate(-0 73.703906 35.595937)">UMAPing (ours)</text>
    </g>
    <g id="line2d_14">
     <path d="M 51.303906 44.796563 
L 59.303906 44.796563 
L 67.303906 44.796563 
" style="fill: none; stroke: #243f65; stroke-width: 1.5; stroke-linecap: square"/>
    </g>
    <g id="text_14">
     <text style="font-size: 8px; font-family: 'DejaVu Sans'; text-anchor: start" x="73.703906" y="47.596563" transform="rotate(-0 73.703906 47.596563)">Standard UMAP</text>
    </g>
    <g id="line2d_15">
     <path d="M 51.303906 56.797187 
L 59.303906 56.797187 
L 67.303906 56.797187 
" style="fill: none; stroke: #ff7f0e; stroke-width: 1.5; stroke-linecap: square"/>
    </g>
    <g id="text_15">
     <text style="font-size: 8px; font-family: 'DejaVu Sans'; text-anchor: start" x="73.703906" y="59.597187" transform="rotate(-0 73.703906 59.597187)">Ours: no repulsion</text>
    </g>
   </g>
  </g>
 </g>
 <defs>
  <clipPath id="p8f236cf3d6">
   <rect x="44.103906" y="22.317187" width="334.8" height="221.76"/>
  </clipPath>
 </defs>
</svg>
