<?xml version="1.0" encoding="utf-8" standalone="no"?>
<!DOCTYPE svg PUBLIC "-//W3C//DTD SVG 1.1//EN"
  "http://www.w3.org/Graphics/SVG/1.1/DTD/svg11.dtd">
<svg xmlns:xlink="http://www.w3.org/1999/xlink" width="389.288281pt" height="282.278906pt" viewBox="0 0 389.288281 282.278906" xmlns="http://www.w3.org/2000/svg" version="1.1">
 <metadata>
  <rdf:RDF xmlns:dc="http://purl.org/dc/elements/1.1/" xmlns:cc="http://creativecommons.org/ns#" xmlns:rdf="http://www.w3.org/1999/02/22-rdf-syntax-ns#">
   <cc:Work>
    <dc:type rdf:resource="http://purl.org/dc/dcmitype/StillImage"/>
    <dc:date>2026-09-14T16:09:27.155071</dc:date>
    <dc:format>image/svg+xml</dc:format>
    <dc:creator>
     <cc:Agent>
      <dc:title>Matplotlib v3.11.2, https://matplotlib.org/</dc:title>
     </cc:Agent>
    </dc:creator>
   </cc:Work>
  </rdf:RDF>
 </metadata>
 <defs>
  <style type="text/css">*{stroke-linejoin: round; stroke-linecap: butt}</style>
 </defs>
 <g id="figure_1">
  <g id="patch_1">
   <path d="M 0 282.278906 
L 389.288281 282.278906 
L 389.288281 0 
L 0 0 
z
" style="fill: #ffffff"/>
  </g>
  <g id="axes_1">
   <g id="patch_2">
    <path d="M 47.288281 244.078125 
L 382.088281 244.078125 
L 382.088281 22.318125 
L 47.288281 22.318125 
z
" style="fill: #ffffff"/>
   </g>
   <g id="patch_3">
    <path d="M 62.506463 244.078125 
L 72.324645 244.078125 
L 72.324645 244.078125 
L 62.506463 244.078125 
z
" clip-path="url(#pc0b3a5a6f4)" style="fill: #527f9c; stroke: #ffffff; stroke-linejoin: miter"/>
   </g>
   <g id="patch_4">
    <path d="M 72.324645 244.078125 
L 82.142827 244.078125 
L 82.142827 244.078125 
L 72.324645 244.078125 
z
" clip-path="url(#pc0b3a5a6f4)" style="fill: #527f9c; stroke: #ffffff; stroke-linejoin: miter"/>
   </g>
   <g id="patch_5">
    <path d="M 82.142827 244.078125 
L 91.961009 244.078125 
L 91.961009 244.078125 
L 82.142827 244.078125 
z
" clip-path="url(#pc0b3a5a6f4)" style="fill: #527f9c; stroke: #ffffff; stroke-linejoin: miter"/>
   </g>
   <g id="patch_6">
    <path d="M 91.961009 244.078125 
L 101.77919 244.078125 
L 101.77919 244.078125 
L 91.961009 244.078125 
z
" clip-path="url(#pc0b3a5a6f4)" style="fill: #527f9c; stroke: #ffffff; stroke-linejoin: miter"/>
   </g>
   <g id="patch_7">
    <path d="M 101.77919 244.078125 
L 111.597372 244.078125 
L 111.597372 244.078125 
L 101.77919 244.078125 
z
" clip-path="url(#pc0b3a5a6f4)" style="fill: #527f9c; stroke: #ffffff; stroke-linejoin: miter"/>
   </g>
   <g id="patch_8">
    <path d="M 111.597372 244.078125 
L 121.415554 244.078125 
L 121.415554 244.078125 
L 111.597372 244.078125 
z
" clip-path="url(#pc0b3a5a6f4)" style="fill: #527f9c; stroke: #ffffff; stroke-linejoin: miter"/>
   </g>
   <g id="patch_9">
    <path d="M 121.415554 244.078125 
L 131.233736 244.078125 
L 131.233736 244.078125 
L 121.415554 244.078125 
z
" clip-path="url(#pc0b3a5a6f4)" style="fill: #527f9c; stroke: #ffffff; stroke-linejoin: miter"/>
   </g>
   <g id="patch_10">
    <path d="M 131.233736 244.078125 
L 141.051918 244.078125 
L 141.051918 244.078125 
L 131.233736 244.078125 
z
" clip-path="url(#pc0b3a5a6f4)" style="fill: #527f9c; stroke: #ffffff; stroke-linejoin: miter"/>
   </g>
   <g id="patch_11">
    <path d="M 141.051918 244.078125 
L 150.870099 244.078125 
L 150.870099 244.078125 
L 141.051918 244.078125 
z
" clip-path="url(#pc0b3a5a6f4)" style="fill: #527f9c; stroke: #ffffff; stroke-linejoin: miter"/>
   </g>
   <g id="patch_12">
    <path d="M 150.870099 244.078125 
L 160.688281 244.078125 
L 160.688281 244.078125 
L 150.870099 244.078125 
z
" clip-path="url(#pc0b3a5a6f4)" style="fill: #527f9c; stroke: #ffffff; stroke-linejoin: miter"/>
   </g>
   <g id="patch_13">
    <path d="M 160.688281 244.078125 
L 170.506463 244.078125 
L 170.506463 242.166813 
L 160.688281 242.166813 
z
" clip-path="url(#pc0b3a5a6f4)" style="fill: #527f9c; stroke: #ffffff; stroke-linejoin: miter"/>
   </g>
   <g id="patch_14">
    <path d="M 170.506463 244.078125 
L 180.324645 244.078125 
L 180.324645 240.255501 
L 170.506463 240.255501 
z
" clip-path="url(#pc0b3a5a6f4)" style="fill: #527f9c; stroke: #ffffff; stroke-linejoin: miter"/>
   </g>
   <g id="patch_15">
    <path d="M 180.324645 244.078125 
L 190.142827 244.078125 
L 190.142827 223.053691 
L 180.324645 223.053691 
z
" clip-path="url(#pc0b3a5a6f4)" style="fill: #527f9c; stroke: #ffffff; stroke-linejoin: miter"/>
   </g>
   <g id="patch_16">
    <path d="M 190.142827 244.078125 
L 199.961009 244.078125 
L 199.961009 196.29532 
L 190.142827 196.29532 
z
" clip-path="url(#pc0b3a5a6f4)" style="fill: #527f9c; stroke: #ffffff; stroke-linejoin: miter"/>
   </g>
   <g id="patch_17">
    <path d="M 199.961009 244.078125 
L 209.77919 244.078125 
L 209.77919 112.197582 
L 199.961009 112.197582 
z
" clip-path="url(#pc0b3a5a6f4)" style="fill: #527f9c; stroke: #ffffff; stroke-linejoin: miter"/>
   </g>
   <g id="patch_18">
    <path d="M 209.77919 244.078125 
L 219.597372 244.078125 
L 219.597372 32.878125 
L 209.77919 32.878125 
z
" clip-path="url(#pc0b3a5a6f4)" style="fill: #527f9c; stroke: #ffffff; stroke-linejoin: miter"/>
   </g>
   <g id="patch_19">
    <path d="M 219.597372 244.078125 
L 229.415554 244.078125 
L 229.415554 61.547808 
L 219.597372 61.547808 
z
" clip-path="url(#pc0b3a5a6f4)" style="fill: #527f9c; stroke: #ffffff; stroke-linejoin: miter"/>
   </g>
   <g id="patch_20">
    <path d="M 229.415554 244.078125 
L 239.233736 244.078125 
L 239.233736 151.379482 
L 229.415554 151.379482 
z
" clip-path="url(#pc0b3a5a6f4)" style="fill: #527f9c; stroke: #ffffff; stroke-linejoin: miter"/>
   </g>
   <g id="patch_21">
    <path d="M 239.233736 244.078125 
L 249.051918 244.078125 
L 249.051918 217.319754 
L 239.233736 217.319754 
z
" clip-path="url(#pc0b3a5a6f4)" style="fill: #527f9c; stroke: #ffffff; stroke-linejoin: miter"/>
   </g>
   <g id="patch_22">
    <path d="M 249.051918 244.078125 
L 258.870099 244.078125 
L 258.870099 234.521564 
L 249.051918 234.521564 
z
" clip-path="url(#pc0b3a5a6f4)" style="fill: #527f9c; stroke: #ffffff; stroke-linejoin: miter"/>
   </g>
   <g id="patch_23">
    <path d="M 258.870099 244.078125 
L 268.688281 244.078125 
L 268.688281 242.166813 
L 258.870099 242.166813 
z
" clip-path="url(#pc0b3a5a6f4)" style="fill: #527f9c; stroke: #ffffff; stroke-linejoin: miter"/>
   </g>
   <g id="patch_24">
    <path d="M 268.688281 244.078125 
L 278.506463 244.078125 
L 278.506463 243.122469 
L 268.688281 243.122469 
z
" clip-path="url(#pc0b3a5a6f4)" style="fill: #527f9c; stroke: #ffffff; stroke-linejoin: miter"/>
   </g>
   <g id="patch_25">
    <path d="M 278.506463 244.078125 
L 288.324645 244.078125 
L 288.324645 244.078125 
L 278.506463 244.078125 
z
" clip-path="url(#pc0b3a5a6f4)" style="fill: #527f9c; stroke: #ffffff; stroke-linejoin: miter"/>
   </g>
   <g id="patch_26">
    <path d="M 288.324645 244.078125 
L 298.142827 244.078125 
L 298.142827 244.078125 
L 288.324645 244.078125 
z
" clip-path="url(#pc0b3a5a6f4)" style="fill: #527f9c; stroke: #ffffff; stroke-linejoin: miter"/>
   </g>
   <g id="patch_27">
    <path d="M 298.142827 244.078125 
L 307.961009 244.078125 
L 307.961009 244.078125 
L 298.142827 244.078125 
z
" clip-path="url(#pc0b3a5a6f4)" style="fill: #527f9c; stroke: #ffffff; stroke-linejoin: miter"/>
   </g>
   <g id="patch_28">
    <path d="M 307.961009 244.078125 
L 317.77919 244.078125 
L 317.77919 244.078125 
L 307.961009 244.078125 
z
" clip-path="url(#pc0b3a5a6f4)" style="fill: #527f9c; stroke: #ffffff; stroke-linejoin: miter"/>
   </g>
   <g id="patch_29">
    <path d="M 317.77919 244.078125 
L 327.597372 244.078125 
L 327.597372 244.078125 
L 317.77919 244.078125 
z
" clip-path="url(#pc0b3a5a6f4)" style="fill: #527f9c; stroke: #ffffff; stroke-linejoin: miter"/>
   </g>
   <g id="patch_30">
    <path d="M 327.597372 244.078125 
L 337.415554 244.078125 
L 337.415554 244.078125 
L 327.597372 244.078125 
z
" clip-path="url(#pc0b3a5a6f4)" style="fill: #527f9c; stroke: #ffffff; stroke-linejoin: miter"/>
   </g>
   <g id="patch_31">
    <path d="M 337.415554 244.078125 
L 347.233736 244.078125 
L 347.233736 244.078125 
L 337.415554 244.078125 
z
" clip-path="url(#pc0b3a5a6f4)" style="fill: #527f9c; stroke: #ffffff; stroke-linejoin: miter"/>
   </g>
   <g id="patch_32">
    <path d="M 347.233736 244.078125 
L 357.051918 244.078125 
L 357.051918 244.078125 
L 347.233736 244.078125 
z
" clip-path="url(#pc0b3a5a6f4)" style="fill: #527f9c; stroke: #ffffff; stroke-linejoin: miter"/>
   </g>
   <g id="patch_33">
    <path d="M 357.051918 244.078125 
L 366.870099 244.078125 
L 366.870099 244.078125 
L 357.051918 244.078125 
z
" clip-path="url(#pc0b3a5a6f4)" style="fill: #527f9c; stroke: #ffffff; stroke-linejoin: miter"/>
   </g>
   <g id="matplotlib.axis_1">
    <g id="xtick_1">
     <g id="line2d_1">
      <defs>
       <path id="me00a003199" d="M 0 0 
L 0 3.5 
" style="stroke: #000000; stroke-width: 0.8"/>
      </defs>
      <g>
       <use xlink:href="#me00a003199" x="62.506463" y="244.078125" style="stroke: #000000; stroke-width: 0.8"/>
      </g>
     </g>
     <g id="text_1">
      <text style="font-size: 10px; font-family: 'DejaVu Sans'; text-anchor: middle" x="62.506463" y="258.675781" transform="rotate(-0 62.506463 258.675781)">−1.00</text>
     </g>
    </g>
    <g id="xtick_2">
     <g id="line2d_2">
      <g>
       <use xlink:href="#me00a003199" x="100.551918" y="244.078125" style="stroke: #000000; stroke-width: 0.8"/>
      </g>
     </g>
     <g id="text_2">
      <text style="font-size: 10px; font-family: 'DejaVu Sans'; text-anchor: middle" x="100.551918" y="258.675781" transform="rotate(-0 100.551918 258.675781)">−0.75</text>
     </g>
    </g>
    <g id="xtick_3">
     <g id="line2d_3">
      <g>
       <use xlink:href="#me00a003199" x="138.597372" y="244.078125" style="stroke: #000000; stroke-width: 0.8"/>
      </g>
     </g>
     <g id="text_3">
      <text style="font-size: 10px; font-family: 'DejaVu Sans'; text-anchor: middle" x="138.597372" y="258.675781" transform="rotate(-0 138.597372 258.675781)">−0.50</text>
     </g>
    </g>
    <g id="xtick_4">
     <g id="line2d_4">
      <g>
       <use xlink:href="#me00a003199" x="176.642827" y="244.078125" style="stroke: #000000; stroke-width: 0.8"/>
      </g>
     </g>
     <g id="text_4">
      <text style="font-size: 10px; font-family: 'DejaVu Sans'; text-anchor: middle" x="176.642827" y="258.675781" transform="rotate(-0 176.642827 258.675781)">−0.25</text>
     </g>
    </g>
    <g id="xtick_5">
     <g id="line2d_5">
      <g>
       <use xlink:href="#me00a003199" x="214.688281" y="244.078125" style="stroke: #000000; stroke-width: 0.8"/>
      </g>
     </g>
     <g id="text_5">
      <text style="font-size: 10px; font-family: 'DejaVu Sans'; text-anchor: middle" x="214.688281" y="258.675781" transform="rotate(-0 214.688281 258.675781)">0.00</text>
     </g>
    </g>
    <g id="xtick_6">
     <g id="line2d_6">
      <g>
       <use xlink:href="#me00a003199" x="252.733736" y="244.078125" style="stroke: #000000; stroke-width: 0.8"/>
      </g>
     </g>
     <g id="text_6">
      <text style="font-size: 10px; font-family: 'DejaVu Sans'; text-anchor: middle" x="252.733736" y="258.675781" transform="rotate(-0 252.733736 258.675781)">0.25</text>
     </g>
    </g>
    <g id="xtick_7">
     <g id="line2d_7">
      <g>
       <use xlink:href="#me00a003199" x="290.77919" y="244.078125" style="stroke: #000000; stroke-width: 0.8"/>
      </g>
     </g>
     <g id="text_7">
      <text style="font-size: 10px; font-family: 'DejaVu Sans'; text-anchor: middle" x="290.77919" y="258.675781" transform="rotate(-0 290.77919 258.675781)">0.50</text>
     </g>
    </g>
    <g id="xtick_8">
     <g id="line2d_8">
      <g>
       <use xlink:href="#me00a003199" x="328.824645" y="244.078125" style="stroke: #000000; stroke-width: 0.8"/>
      </g>
     </g>
     <g id="text_8">
      <text style="font-size: 10px; font-family: 'DejaVu Sans'; text-anchor: middle" x="328.824645" y="258.675781" transform="rotate(-0 328.824645 258.675781)">0.75</text>
     </g>
    </g>
    <g id="xtick_9">
     <g id="line2d_9">
      <g>
       <use xlink:href="#me00a003199" x="366.870099" y="244.078125" style="stroke: #000000; stroke-width: 0.8"/>
      </g>
     </g>
     <g id="text_9">
      <text style="font-size: 10px; font-family: 'DejaVu Sans'; text-anchor: middle" x="366.870099" y="258.675781" transform="rotate(-0 366.870099 258.675781)">1.00</text>
     </g>
    </g>
    <g id="text_10">
     <text style="font-size: 10px; font-family: 'DejaVu Sans'; text-anchor: middle" x="214.688281" y="272.676563" transform="rotate(-0 214.688281 272.676563)">Paired Recall@15: ours − standard UMAP</text>
    </g>
   </g>
   <g id="matplotlib.axis_2">
    <g id="ytick_1">
     <g id="line2d_10">
      <defs>
       <path id="mc8d5532264" d="M 0 0 
L -3.5 0 
" style="stroke: #000000; stroke-width: 0.8"/>
      </defs>
      <g>
       <use xlink:href="#mc8d5532264" x="47.288281" y="244.078125" style="stroke: #000000; stroke-width: 0.8"/>
      </g>
     </g>
     <g id="text_11">
      <text style="font-size: 10px; font-family: 'DejaVu Sans'; text-anchor: end" x="40.288281" y="247.876953" transform="rotate(-0 40.288281 247.876953)">0</text>
     </g>
    </g>
    <g id="ytick_2">
     <g id="line2d_11">
      <g>
       <use xlink:href="#mc8d5532264" x="47.288281" y="196.29532" style="stroke: #000000; stroke-width: 0.8"/>
      </g>
     </g>
     <g id="text_12">
      <text style="font-size: 10px; font-family: 'DejaVu Sans'; text-anchor: end" x="40.288281" y="200.094148" transform="rotate(-0 40.288281 200.094148)">50</text>
     </g>
    </g>
    <g id="ytick_3">
     <g id="line2d_12">
      <g>
       <use xlink:href="#mc8d5532264" x="47.288281" y="148.512514" style="stroke: #000000; stroke-width: 0.8"/>
      </g>
     </g>
     <g id="text_13">
      <text style="font-size: 10px; font-family: 'DejaVu Sans'; text-anchor: end" x="40.288281" y="152.311342" transform="rotate(-0 40.288281 152.311342)">100</text>
     </g>
    </g>
    <g id="ytick_4">
     <g id="line2d_13">
      <g>
       <use xlink:href="#mc8d5532264" x="47.288281" y="100.729709" style="stroke: #000000; stroke-width: 0.8"/>
      </g>
     </g>
     <g id="text_14">
      <text style="font-size: 10px; font-family: 'DejaVu Sans'; text-anchor: end" x="40.288281" y="104.528537" transform="rotate(-0 40.288281 104.528537)">150</text>
     </g>
    </g>
    <g id="ytick_5">
     <g id="line2d_14">
      <g>
       <use xlink:href="#mc8d5532264" x="47.288281" y="52.946903" style="stroke: #000000; stroke-width: 0.8"/>
      </g>
     </g>
     <g id="text_15">
      <text style="font-size: 10px; font-family: 'DejaVu Sans'; text-anchor: end" x="40.288281" y="56.745731" transform="rotate(-0 40.288281 56.745731)">200</text>
     </g>
    </g>
    <g id="text_16">
     <text style="font-size: 10px; font-family: 'DejaVu Sans'; text-anchor: middle" x="14.798438" y="133.198125" transform="rotate(-90 14.798438 133.198125)">Queries</text>
    </g>
   </g>
   <g id="line2d_15">
    <path d="M 214.688281 244.078125 
L 214.688281 22.318125 
" clip-path="url(#pc0b3a5a6f4)" style="fill: none; stroke: #b83239; stroke-width: 1.5; stroke-linecap: square"/>
   </g>
   <g id="patch_34">
    <path d="M 47.288281 244.078125 
L 47.288281 22.318125 
" style="fill: none; stroke: #000000; stroke-width: 0.8; stroke-linejoin: miter; stroke-linecap: square"/>
   </g>
   <g id="patch_35">
    <path d="M 47.288281 244.078125 
L 382.088281 244.078125 
" style="fill: none; stroke: #000000; stroke-width: 0.8; stroke-linejoin: miter; stroke-linecap: square"/>
   </g>
   <g id="text_17">
    <text style="font-weight: 700; font-size: 12px; font-family: 'DejaVu Sans'; text-anchor: start" x="47.288281" y="16.318125" transform="rotate(-0 47.288281 16.318125)">Organoid</text>
   </g>
  </g>
 </g>
 <defs>
  <clipPath id="pc0b3a5a6f4">
   <rect x="47.288281" y="22.318125" width="334.8" height="221.76"/>
  </clipPath>
 </defs>
</svg>
